<?xml version="1.0" encoding="UTF-8"?>
<svg version="1.1" viewBox="0 0 2048 2048" width="250" height="200" xmlns="http://www.w3.org/2000/svg">
<path transform="translate(0)" d="m0 0h2048v2048h-2048z" fill="#FEFEFE"/>
<path transform="translate(895,708)" d="m0 0h252l1 1v203h204v254l-194 1-1 203-1 1h-269l-1-1-1-203-194-1-1-36v-180l1-37 1-1 202-1z" fill="#024C86"/>
<path transform="translate(951,954)" d="m0 0h15l15 3 12 5 11 7 12 11 5 6 2 1 2-5 6-7 12-9 16-8 10-3 8-1h15l16 3 16 7 11 8 10 10 9 14 5 13 3 15v16l-4 20-7 17-8 14-10 14-20 20-10 8-18 12-21 13-19 9-22 9-5-1-26-11-16-8-15-9-18-12-9-7-10-9-5-4-7-8-8-10-11-18-6-14-4-15-2-13v-12l3-16 5-13 8-13 9-10 11-8 15-7 10-3z" fill="#FEFEFE"/>
<path transform="translate(1494,1349)" d="m0 0 10 1 11 4 11 6 8 7 6 9 4 10 1 5-1 13 21 3 31 7 8 3-3 5-11 15-35-8-17-3-4 1-7 11-4 5 1 3 13 9 19 14 7 5-12 18-4-1-17-12-54-39-19-14-18-13-4-3 2-5 13-18 11-15 11-12 8-6 9-4z" fill="#024C86"/>
<path transform="translate(1579,603)" d="m0 0h3l13 19 14 19 8 16 2 9v9l-3 9-7 9-9 9-14 8-6 2h-16l-11-4h-2l-2 6-14 25-12 19-4-1-11-15 1-6 13-21 8-15 3-7-1-4-10-14-5 2-14 10-17 12-4 3-4-1-10-15 2-4 14-10 19-14 20-14 13-10 19-13 17-13z" fill="#024C86"/>
<path transform="translate(1649 1e3)" d="m0 0 13 1 12 4 12 7 9 9 7 12 4 13v17l-4 14-7 12-9 9-14 8-9 3-7 1h-8l-14-3-14-7-10-9-7-11-5-13-1-7v-9l3-14 6-12 8-10 13-9 10-4z" fill="#024C86"/>
<path transform="translate(390 1e3)" d="m0 0 17 2 10 4 10 7 6 5 7 10 5 12 2 10v10l-4 15-5 10-8 10-11 8-12 5-10 2h-8l-15-3-12-6-10-9-7-9-5-12-2-9v-13l3-13 6-12 10-11 11-7 10-4z" fill="#024C86"/>
<path transform="translate(1376,1466)" d="m0 0 4 2 16 12 15 12 12 9 13 10 18 14 13 10 14 11 10 8v3l-14 11-5 1-14-10-6-4-4 2-11 9-16 13-5 4 1 5 9 19-1 4-13 10-4 2-10-19-16-34-11-23-18-38-8-18 22-18z" fill="#024C86"/>
<path transform="translate(667,1467)" d="m0 0 5 2 13 11 14 11-1 6-19 39-8 16-18 38-15 30-1 3-4-1-15-12 1-6 9-19-2-4-14-11-13-11-5-4-5 1-16 12-5 1-11-9-5-4v-2l14-10 15-12 19-14 14-11 21-16 16-12z" fill="#024C86"/>
<path transform="translate(585,485)" d="m0 0 7 4 14 11 15 12 16 12 14 11 17 13 13 10 18 14-2 4-13 10-4 1-18-13-4-1-12 10-10 8-11 9v5l8 16 2 5-12 10-6 4-5-8-17-36-11-23-12-25-10-22-7-14 2-4 13-11 14-11z" fill="#024C86"/>
<path transform="translate(1458,486)" d="m0 0 4 2 14 11 14 12-2 6-8 16-16 33-17 35-11 23-8 16-4-2-14-11-1-2 10-22-1-4-13-11-13-10-7-6-4 2-12 9-6 4-4-2-9-7-5-4 1-3 16-12 13-10 16-12 18-14 19-14 18-14z" fill="#024C86"/>
<path transform="translate(1137,1589)" d="m0 0h6l1 1 14 109 3 22v9l-11 2h-12l-5-38-3-20-20 2-24 3-3 2 7 58-21 3-2-1-4-26-14-111v-3l17-3h6l1 1 7 59 45-6h3l-7-54v-6l1-1z" fill="#024C86"/>
<path transform="translate(499,1199)" d="m0 0h2l7 20-1 3-36 12-19 7 1 6 12 34 1 4 7-1 35-12 12-4h5l6 18v3l-30 11-102 35h-2l-7-19v-3l34-12 20-7h2l-15-45-9 2-47 16-3-3-5-15v-4l30-11 56-19z" fill="#024C86"/>
<path transform="translate(361,771)" d="m0 0 10 2 40 14 41 14 32 11 10 4-3 10-4 11-9-2-42-14-6-1-7 20-8 24 11 3 43 15 1 4-6 17-4 1-37-13-42-14-50-18 1-5 5-15 4-1 50 17 4 1 14-41 1-3-8-3-44-15-4-2 1-5 5-15z" fill="#024C86"/>
<path transform="translate(1073,338)" d="m0 0 15 1 7 2-7 56-1 3 21 2 27 4 7-58 1-2 22 3-1 16-13 100-3 21-1 2-14-1-7-2v-8l6-50-43-6-4-1-4 36-3 23-14-1-9-2 1-14 15-114z" fill="#024C86"/>
<path transform="translate(1544,1202)" d="m0 0 10 3 9 4-1 5-9 25-10 25v2l35 13 2-3 9-25 8-21 4-1 15 6 1 2-12 31-7 18 12 5 25 10 2 1 1-5 11-30 9-22 6 1 13 5-2 9-19 50-8 20-9-2-30-12-38-14-41-16-15-6 3-10 11-29 14-37z" fill="#024C86"/>
<path transform="translate(560,1340)" d="m0 0 4 4 22 33 13 19 8 12v2l-15 10h-3l-32-48-5 2-10 7-16 11h-2l10 15 11 16 9 14v2l-11 7-5 3-12-17-18-27-4 2-30 20 2 5 10 14 20 30v3l-15 10-5-5-14-20-16-24-11-16-2-4 11-8 19-13 37-25 19-13 18-12z" fill="#024C86"/>
<path transform="translate(1681,774)" d="m0 0 3 1 13 34 15 41-1 2-17 6-3-5-15-39-4-10-9 2-23 9h-3l7 21 10 27v4l-17 6-5-11-14-37-7 1-29 11h-2l8 23 12 32v2l-15 6-5-1-10-27-13-34-5-14 9-4 28-11 51-19z" fill="#024C86"/>
<path transform="translate(457,608)" d="m0 0 5 1 12 9-1 4-23 34-7 10v3l27 18 4 1 15-22 10-15 4-5 5 2 12 8-7 11-12 17-9 14v4l27 18 6 3 2-5 8-11 18-27 4-5 5 2 11 7v4l-22 33-22 32-4-1-11-7-19-13-31-21-22-15-30-20 2-5 12-17 10-15 15-22z" fill="#024C86"/>
<path transform="translate(1273,1542)" d="m0 0h6l2 10v9l-20 5-13 5-8 7-5 10v10l4 17 10 24 8 15 7 9 8 5 4 1h7l10-3 15-8 13-9h3l9 14-2 4-18 12-16 8-13 4h-15l-11-4-9-7-8-8-10-15-10-21-6-18-3-16v-14l3-12 6-11 10-9 17-8 19-5z" fill="#024C86"/>
<path transform="translate(1289,391)" d="m0 0 13 1 15 5 16 9 10 8 1 4-6 7-4 6-7-4-13-8-8-4-4-1h-14l-8 5-8 9-9 16-8 20-4 14v18l3 6 8 7 16 6 20 4 2 1-1 9-2 9-4 1-20-4-19-7-10-6-8-7-5-8-4-13v-14l4-18 6-17 11-23 9-13 7-7 11-7 8-3z" fill="#024C86"/>
<path transform="translate(902,1588)" d="m0 0 12 1 60 9 22 4 1 5-3 15-12-1-24-4-2 16-9 61-6 40-1 3-12-1-10-2-1-2 12-77 6-41-23-3-12-2-1-3z" fill="#024C86"/>
<path transform="translate(965,337)" d="m0 0h5l2 9 1 10-5 2-27 4-3 2 7 45 10 69v3l-18 3h-4l-10-61-8-54v-3l-28 4h-8l-2-13v-6l6-2z" fill="#024C86"/>
<path transform="translate(773,1541)" d="m0 0 5 1 17 8-9 19-17 37-7 16-7 14-10 22v3l25 11 25 12 1 3-8 16-4-1-18-8-22-10-15-7-14-7 1-5 9-20 15-32 13-29 13-27z" fill="#024C86"/>
<path transform="translate(716,404)" d="m0 0 5 1 11 25 16 34 15 33 7 14 20-9 26-12 7-1 5 13 2 5-65 30-7 3-10-19-13-29-16-34-16-36-3-6 1-5z" fill="#024C86"/>
<path transform="translate(1494,1373)" d="m0 0 8 1 10 5 6 5 5 10v8l-4 10-13 19-5-1-16-12-19-13-2-3 12-16 5-6 9-6z" fill="#FEFEFE"/>
<path transform="translate(1576,633)" d="m0 0h3l7 10 8 13 2 7-1 10-6 8-9 7-7 2-9-1-10-6-10-12-6-9 5-5 14-10 15-11z" fill="#FEFEFE"/>
<path transform="translate(669,1494)" d="m0 0 3 1-1 5-12 25-10 19-10 20-4-2-13-10-13-11 1-3 11-8 18-14 20-15z" fill="#FEFEFE"/>
<path transform="translate(1374,1494)" d="m0 0 4 1 13 10 11 9 16 13 16 12-1 4-11 9-16 13-3-3-12-25-13-28-5-10z" fill="#FEFEFE"/>
<path transform="translate(1460,513)" d="m0 0 3 1-1 5-30 60-1 3-5-2-13-11-13-10 5-5 30-23 20-15z" fill="#FEFEFE"/>
<path transform="translate(582,513)" d="m0 0 5 1 12 9 11 9 16 13 17 13-5 5-10 9-11 8-1 2h-3l-22-45-9-20z" fill="#FEFEFE"/>
</svg>
